<mxfile host="drawio-plugin" modified="2021-11-22T14:22:45.881Z" agent="5.0 (X11; Linux x86_64) AppleWebKit/537.36 (KHTML, like Gecko) Chrome/89.0.4389.114 Safari/537.36" etag="pPuZGXoNYpsxXwdz1gC6" version="14.7.4" type="embed"><diagram id="Jyk7rCg8KGbtXq0Xk9HY" name="Page-1"><mxGraphModel dx="829" dy="843" grid="1" gridSize="10" guides="1" tooltips="1" connect="1" arrows="1" fold="1" page="1" pageScale="1" pageWidth="640" pageHeight="969" math="0" shadow="0"><root><mxCell id="0"/><mxCell id="iMye_LXfVpJSYTO0qSQB-12" value="background" style="" parent="0"/><mxCell id="iMye_LXfVpJSYTO0qSQB-56" value="" style="rounded=0;whiteSpace=wrap;html=1;labelBackgroundColor=none;fontSize=12;noLabel=1;fontColor=none;fillColor=none;strokeColor=#FFFFFF;fontFamily=Roboto;fontSource=https%3A%2F%2Ffonts.googleapis.com%2Fcss%3Ffamily%3DRoboto;" parent="iMye_LXfVpJSYTO0qSQB-12" vertex="1"><mxGeometry y="4" width="640" height="806" as="geometry"/></mxCell><mxCell id="iMye_LXfVpJSYTO0qSQB-11" value="" style="rounded=0;whiteSpace=wrap;html=1;fillColor=#dae8fc;strokeColor=#6c8ebf;fontSize=12;fontFamily=Roboto;fontSource=https%3A%2F%2Ffonts.googleapis.com%2Fcss%3Ffamily%3DRoboto;" parent="iMye_LXfVpJSYTO0qSQB-12" vertex="1"><mxGeometry y="420" width="640" height="380" as="geometry"/></mxCell><mxCell id="iMye_LXfVpJSYTO0qSQB-13" value="" style="rounded=0;whiteSpace=wrap;html=1;fillColor=#d5e8d4;strokeColor=#82b366;fontSize=12;fontFamily=Roboto;fontSource=https%3A%2F%2Ffonts.googleapis.com%2Fcss%3Ffamily%3DRoboto;" parent="iMye_LXfVpJSYTO0qSQB-12" vertex="1"><mxGeometry y="264" width="640" height="146" as="geometry"/></mxCell><mxCell id="iMye_LXfVpJSYTO0qSQB-51" value="" style="rounded=0;whiteSpace=wrap;html=1;labelBackgroundColor=#E6E6E6;fontSize=12;strokeColor=#666666;fontColor=#333333;fillColor=#f5f5f5;fontFamily=Roboto;fontSource=https%3A%2F%2Ffonts.googleapis.com%2Fcss%3Ffamily%3DRoboto;" parent="iMye_LXfVpJSYTO0qSQB-12" vertex="1"><mxGeometry y="74" width="490" height="180" as="geometry"/></mxCell><mxCell id="PGbSs_iwUj3DiiSBGkFn-13" style="edgeStyle=orthogonalEdgeStyle;rounded=0;orthogonalLoop=1;jettySize=auto;html=1;startArrow=classic;startFill=1;strokeWidth=2;fontColor=#33FF33;strokeColor=#000099;fontSize=12;fontFamily=Roboto;fontSource=https%3A%2F%2Ffonts.googleapis.com%2Fcss%3Ffamily%3DRoboto;" parent="iMye_LXfVpJSYTO0qSQB-12" source="cK_maNlCVZVQSUSzoBmn-12" target="cK_maNlCVZVQSUSzoBmn-13" edge="1"><mxGeometry relative="1" as="geometry"><mxPoint x="260" y="468.9655172413793" as="sourcePoint"/><mxPoint x="168.51724137931024" y="530" as="targetPoint"/></mxGeometry></mxCell><mxCell id="1" value="sandbox" parent="0"/><mxCell id="cK_maNlCVZVQSUSzoBmn-1" value="" style="pointerEvents=1;shadow=0;dashed=0;html=1;strokeColor=none;labelPosition=center;verticalLabelPosition=bottom;verticalAlign=top;outlineConnect=0;align=center;shape=mxgraph.office.devices.workstation;fillColor=#000099;fontSize=12;fontFamily=Roboto;fontSource=https%3A%2F%2Ffonts.googleapis.com%2Fcss%3Ffamily%3DRoboto;" parent="1" vertex="1"><mxGeometry x="132" y="711" width="53" height="56" as="geometry"/></mxCell><mxCell id="cK_maNlCVZVQSUSzoBmn-2" value="" style="pointerEvents=1;shadow=0;dashed=0;html=1;strokeColor=none;labelPosition=center;verticalLabelPosition=bottom;verticalAlign=top;outlineConnect=0;align=center;shape=mxgraph.office.devices.workstation;fillColor=#000099;fontSize=12;fontFamily=Roboto;fontSource=https%3A%2F%2Ffonts.googleapis.com%2Fcss%3Ffamily%3DRoboto;" parent="1" vertex="1"><mxGeometry x="376" y="710" width="53" height="56" as="geometry"/></mxCell><mxCell id="cK_maNlCVZVQSUSzoBmn-3" value="accessible_by_user=&lt;b style=&quot;font-size: 12px;&quot;&gt;True&lt;/b&gt;" style="pointerEvents=1;shadow=0;dashed=0;html=1;strokeColor=none;labelPosition=left;verticalLabelPosition=bottom;verticalAlign=top;outlineConnect=0;align=right;shape=mxgraph.office.devices.switch;spacingLeft=0;spacingBottom=0;spacingTop=0;spacing=0;spacingRight=-15;fontSize=12;labelBackgroundColor=#E6E6E6;fillColor=#000099;fontFamily=Roboto;fontSource=https%3A%2F%2Ffonts.googleapis.com%2Fcss%3Ffamily%3DRoboto;" parent="1" vertex="1"><mxGeometry x="131" y="630" width="55" height="18" as="geometry"/></mxCell><mxCell id="cK_maNlCVZVQSUSzoBmn-5" value="" style="pointerEvents=1;shadow=0;dashed=0;html=1;strokeColor=none;labelPosition=center;verticalLabelPosition=bottom;verticalAlign=top;outlineConnect=0;align=center;shape=mxgraph.office.devices.router;fillColor=#000099;fontSize=12;fontFamily=Roboto;fontSource=https%3A%2F%2Ffonts.googleapis.com%2Fcss%3Ffamily%3DRoboto;" parent="1" vertex="1"><mxGeometry x="131" y="520" width="55" height="56" as="geometry"/></mxCell><mxCell id="cK_maNlCVZVQSUSzoBmn-6" value="" style="pointerEvents=1;shadow=0;dashed=0;html=1;strokeColor=none;labelPosition=center;verticalLabelPosition=bottom;verticalAlign=top;outlineConnect=0;align=center;shape=mxgraph.office.devices.router;fillColor=#000099;fontSize=12;fontFamily=Roboto;fontSource=https%3A%2F%2Ffonts.googleapis.com%2Fcss%3Ffamily%3DRoboto;" parent="1" vertex="1"><mxGeometry x="375" y="520" width="55" height="56" as="geometry"/></mxCell><mxCell id="cK_maNlCVZVQSUSzoBmn-10" value="man-network" style="pointerEvents=1;shadow=0;dashed=0;html=1;strokeColor=none;labelPosition=right;verticalLabelPosition=middle;verticalAlign=middle;outlineConnect=0;align=left;shape=mxgraph.office.devices.switch;spacingRight=0;spacingLeft=5;labelBackgroundColor=none;labelBorderColor=none;fillColor=#009900;fontSize=12;fontFamily=Roboto;fontSource=https%3A%2F%2Ffonts.googleapis.com%2Fcss%3Ffamily%3DRoboto;" parent="1" vertex="1"><mxGeometry x="490" y="350" width="55" height="18" as="geometry"/></mxCell><mxCell id="cK_maNlCVZVQSUSzoBmn-12" value="MAN" style="pointerEvents=1;shadow=0;dashed=0;html=1;strokeColor=none;labelPosition=left;verticalLabelPosition=bottom;verticalAlign=top;outlineConnect=0;align=right;shape=mxgraph.office.devices.ip_gateway;fillColor=#009900;fontSize=12;fontFamily=Roboto;fontSource=https%3A%2F%2Ffonts.googleapis.com%2Fcss%3Ffamily%3DRoboto;" parent="1" vertex="1"><mxGeometry x="248" y="294" width="59" height="40" as="geometry"/></mxCell><mxCell id="cK_maNlCVZVQSUSzoBmn-13" value="" style="pointerEvents=1;shadow=0;dashed=0;html=1;strokeColor=none;labelPosition=center;verticalLabelPosition=bottom;verticalAlign=top;outlineConnect=0;align=center;shape=mxgraph.office.devices.switch;fillColor=#000099;fontSize=12;fontFamily=Roboto;fontSource=https%3A%2F%2Ffonts.googleapis.com%2Fcss%3Ffamily%3DRoboto;" parent="1" vertex="1"><mxGeometry x="250" y="450" width="55" height="18" as="geometry"/></mxCell><mxCell id="cK_maNlCVZVQSUSzoBmn-38" value="&lt;div style=&quot;font-size: 12px;&quot;&gt;kypo-base-network&lt;/div&gt;" style="pointerEvents=1;shadow=0;dashed=0;html=1;strokeColor=none;fillColor=#505050;labelPosition=center;verticalLabelPosition=top;verticalAlign=bottom;outlineConnect=0;align=center;shape=mxgraph.office.devices.switch;fontColor=#000000;spacingLeft=0;fontSize=12;fontFamily=Roboto;fontSource=https%3A%2F%2Ffonts.googleapis.com%2Fcss%3Ffamily%3DRoboto;" parent="1" vertex="1"><mxGeometry x="249" y="204" width="55" height="18" as="geometry"/></mxCell><mxCell id="cK_maNlCVZVQSUSzoBmn-40" value="KYPO Head" style="pointerEvents=1;shadow=0;dashed=0;html=1;strokeColor=none;fillColor=#505050;labelPosition=left;verticalLabelPosition=middle;verticalAlign=middle;outlineConnect=0;align=right;shape=mxgraph.office.servers.server_generic;fontColor=#000000;spacingLeft=0;spacingRight=3;fontSize=12;fontFamily=Roboto;fontSource=https%3A%2F%2Ffonts.googleapis.com%2Fcss%3Ffamily%3DRoboto;" parent="1" vertex="1"><mxGeometry x="184" y="104" width="27" height="52" as="geometry"/></mxCell><mxCell id="cK_maNlCVZVQSUSzoBmn-36" style="edgeStyle=orthogonalEdgeStyle;rounded=0;orthogonalLoop=1;jettySize=auto;html=1;startArrow=classic;startFill=1;endArrow=classic;endFill=1;strokeWidth=2;fontColor=#33FF33;strokeColor=#009900;fontSize=12;fontFamily=Roboto;fontSource=https%3A%2F%2Ffonts.googleapis.com%2Fcss%3Ffamily%3DRoboto;" parent="1" source="cK_maNlCVZVQSUSzoBmn-2" target="cK_maNlCVZVQSUSzoBmn-10" edge="1"><mxGeometry relative="1" as="geometry"><Array as="points"><mxPoint x="520" y="738"/></Array></mxGeometry></mxCell><mxCell id="cK_maNlCVZVQSUSzoBmn-26" style="edgeStyle=orthogonalEdgeStyle;rounded=0;orthogonalLoop=1;jettySize=auto;html=1;startArrow=classic;startFill=1;strokeWidth=2;fontColor=#33FF33;strokeColor=#000099;fontSize=12;fontFamily=Roboto;fontSource=https%3A%2F%2Ffonts.googleapis.com%2Fcss%3Ffamily%3DRoboto;" parent="1" source="cK_maNlCVZVQSUSzoBmn-3" target="cK_maNlCVZVQSUSzoBmn-1" edge="1"><mxGeometry relative="1" as="geometry"/></mxCell><mxCell id="cK_maNlCVZVQSUSzoBmn-24" style="edgeStyle=orthogonalEdgeStyle;rounded=0;orthogonalLoop=1;jettySize=auto;html=1;startArrow=classic;startFill=1;strokeWidth=2;fontColor=#33FF33;strokeColor=#000099;fontSize=12;fontFamily=Roboto;fontSource=https%3A%2F%2Ffonts.googleapis.com%2Fcss%3Ffamily%3DRoboto;" parent="1" source="cK_maNlCVZVQSUSzoBmn-4" target="cK_maNlCVZVQSUSzoBmn-2" edge="1"><mxGeometry relative="1" as="geometry"/></mxCell><mxCell id="cK_maNlCVZVQSUSzoBmn-25" style="edgeStyle=orthogonalEdgeStyle;rounded=0;orthogonalLoop=1;jettySize=auto;html=1;startArrow=classic;startFill=1;strokeWidth=2;fontColor=#33FF33;strokeColor=#000099;fontSize=12;fontFamily=Roboto;fontSource=https%3A%2F%2Ffonts.googleapis.com%2Fcss%3Ffamily%3DRoboto;" parent="1" source="cK_maNlCVZVQSUSzoBmn-5" target="cK_maNlCVZVQSUSzoBmn-3" edge="1"><mxGeometry relative="1" as="geometry"/></mxCell><mxCell id="cK_maNlCVZVQSUSzoBmn-23" style="edgeStyle=orthogonalEdgeStyle;rounded=0;orthogonalLoop=1;jettySize=auto;html=1;startArrow=classic;startFill=1;strokeWidth=2;fontColor=#33FF33;strokeColor=#000099;fontSize=12;fontFamily=Roboto;fontSource=https%3A%2F%2Ffonts.googleapis.com%2Fcss%3Ffamily%3DRoboto;" parent="1" source="cK_maNlCVZVQSUSzoBmn-6" target="cK_maNlCVZVQSUSzoBmn-4" edge="1"><mxGeometry relative="1" as="geometry"/></mxCell><mxCell id="cK_maNlCVZVQSUSzoBmn-35" style="edgeStyle=orthogonalEdgeStyle;rounded=0;orthogonalLoop=1;jettySize=auto;html=1;startArrow=classic;startFill=1;endArrow=classic;endFill=1;strokeWidth=2;fontColor=#33FF33;strokeColor=#009900;fontSize=12;fontFamily=Roboto;fontSource=https%3A%2F%2Ffonts.googleapis.com%2Fcss%3Ffamily%3DRoboto;" parent="1" source="cK_maNlCVZVQSUSzoBmn-6" target="cK_maNlCVZVQSUSzoBmn-10" edge="1"><mxGeometry relative="1" as="geometry"><Array as="points"><mxPoint x="508" y="548"/></Array></mxGeometry></mxCell><mxCell id="cK_maNlCVZVQSUSzoBmn-21" style="edgeStyle=orthogonalEdgeStyle;rounded=0;orthogonalLoop=1;jettySize=auto;html=1;startArrow=classic;startFill=1;strokeWidth=2;fontColor=#33FF33;strokeColor=#000099;fontSize=12;fontFamily=Roboto;fontSource=https%3A%2F%2Ffonts.googleapis.com%2Fcss%3Ffamily%3DRoboto;" parent="1" source="cK_maNlCVZVQSUSzoBmn-13" target="cK_maNlCVZVQSUSzoBmn-5" edge="1"><mxGeometry relative="1" as="geometry"><mxPoint x="157.5" y="612" as="sourcePoint"/></mxGeometry></mxCell><mxCell id="cK_maNlCVZVQSUSzoBmn-33" style="edgeStyle=orthogonalEdgeStyle;rounded=0;orthogonalLoop=1;jettySize=auto;html=1;startArrow=classic;startFill=1;endArrow=classic;endFill=1;strokeWidth=2;fontColor=#33FF33;strokeColor=#009900;fontSize=12;fontFamily=Roboto;fontSource=https%3A%2F%2Ffonts.googleapis.com%2Fcss%3Ffamily%3DRoboto;" parent="1" source="cK_maNlCVZVQSUSzoBmn-12" target="cK_maNlCVZVQSUSzoBmn-10" edge="1"><mxGeometry relative="1" as="geometry"><Array as="points"><mxPoint x="520" y="314"/></Array></mxGeometry></mxCell><mxCell id="cK_maNlCVZVQSUSzoBmn-22" style="edgeStyle=orthogonalEdgeStyle;rounded=0;orthogonalLoop=1;jettySize=auto;html=1;startArrow=classic;startFill=1;strokeWidth=2;fontColor=#33FF33;strokeColor=#000099;fontSize=12;fontFamily=Roboto;fontSource=https%3A%2F%2Ffonts.googleapis.com%2Fcss%3Ffamily%3DRoboto;" parent="1" source="cK_maNlCVZVQSUSzoBmn-13" target="cK_maNlCVZVQSUSzoBmn-6" edge="1"><mxGeometry relative="1" as="geometry"/></mxCell><mxCell id="cK_maNlCVZVQSUSzoBmn-39" style="edgeStyle=orthogonalEdgeStyle;rounded=0;orthogonalLoop=1;jettySize=auto;html=1;startArrow=classic;startFill=1;endArrow=classic;endFill=1;strokeWidth=2;fontColor=#33FF33;strokeColor=#009900;fontSize=12;fontFamily=Roboto;fontSource=https%3A%2F%2Ffonts.googleapis.com%2Fcss%3Ffamily%3DRoboto;" parent="1" source="cK_maNlCVZVQSUSzoBmn-38" target="cK_maNlCVZVQSUSzoBmn-12" edge="1"><mxGeometry relative="1" as="geometry"><Array as="points"><mxPoint x="278" y="244"/><mxPoint x="278" y="244"/></Array></mxGeometry></mxCell><mxCell id="cK_maNlCVZVQSUSzoBmn-41" style="edgeStyle=orthogonalEdgeStyle;rounded=0;orthogonalLoop=1;jettySize=auto;html=1;startArrow=classic;startFill=1;endArrow=classic;endFill=1;strokeColor=#000000;strokeWidth=2;fontColor=#000000;fontSize=12;fontFamily=Roboto;fontSource=https%3A%2F%2Ffonts.googleapis.com%2Fcss%3Ffamily%3DRoboto;" parent="1" source="cK_maNlCVZVQSUSzoBmn-40" target="cK_maNlCVZVQSUSzoBmn-38" edge="1"><mxGeometry relative="1" as="geometry"><mxPoint x="239" y="214" as="targetPoint"/><Array as="points"><mxPoint x="199" y="214"/></Array></mxGeometry></mxCell><mxCell id="iMye_LXfVpJSYTO0qSQB-35" style="edgeStyle=orthogonalEdgeStyle;rounded=0;jumpSize=6;orthogonalLoop=1;jettySize=auto;html=1;startSize=6;endArrow=classic;endFill=1;endSize=6;strokeWidth=1;fontSize=12;fontFamily=Roboto;fontSource=https%3A%2F%2Ffonts.googleapis.com%2Fcss%3Ffamily%3DRoboto;" parent="1" source="iMye_LXfVpJSYTO0qSQB-1" edge="1"><mxGeometry relative="1" as="geometry"><mxPoint x="360" y="740" as="targetPoint"/></mxGeometry></mxCell><mxCell id="iMye_LXfVpJSYTO0qSQB-36" style="edgeStyle=orthogonalEdgeStyle;rounded=0;jumpSize=6;orthogonalLoop=1;jettySize=auto;html=1;startSize=6;endArrow=classic;endFill=1;endSize=6;strokeWidth=1;fontSize=12;fontFamily=Roboto;fontSource=https%3A%2F%2Ffonts.googleapis.com%2Fcss%3Ffamily%3DRoboto;" parent="1" source="iMye_LXfVpJSYTO0qSQB-1" edge="1"><mxGeometry relative="1" as="geometry"><mxPoint x="200" y="740" as="targetPoint"/></mxGeometry></mxCell><mxCell id="iMye_LXfVpJSYTO0qSQB-1" value="hosts" style="text;html=1;align=center;verticalAlign=middle;resizable=0;points=[];autosize=1;fontSize=12;fontFamily=Roboto;fontSource=https%3A%2F%2Ffonts.googleapis.com%2Fcss%3Ffamily%3DRoboto;" parent="1" vertex="1"><mxGeometry x="252.5" y="730" width="50" height="20" as="geometry"/></mxCell><mxCell id="iMye_LXfVpJSYTO0qSQB-31" style="edgeStyle=orthogonalEdgeStyle;rounded=0;jumpSize=6;orthogonalLoop=1;jettySize=auto;html=1;startSize=6;endArrow=classic;endFill=1;endSize=6;strokeWidth=1;fontSize=12;fontFamily=Roboto;fontSource=https%3A%2F%2Ffonts.googleapis.com%2Fcss%3Ffamily%3DRoboto;" parent="1" source="iMye_LXfVpJSYTO0qSQB-2" edge="1"><mxGeometry relative="1" as="geometry"><mxPoint x="360" y="680" as="targetPoint"/></mxGeometry></mxCell><mxCell id="iMye_LXfVpJSYTO0qSQB-32" style="edgeStyle=orthogonalEdgeStyle;rounded=0;jumpSize=6;orthogonalLoop=1;jettySize=auto;html=1;startSize=6;endArrow=classic;endFill=1;endSize=6;strokeWidth=1;fontSize=12;fontFamily=Roboto;fontSource=https%3A%2F%2Ffonts.googleapis.com%2Fcss%3Ffamily%3DRoboto;" parent="1" source="iMye_LXfVpJSYTO0qSQB-2" edge="1"><mxGeometry relative="1" as="geometry"><mxPoint x="200" y="680" as="targetPoint"/></mxGeometry></mxCell><mxCell id="iMye_LXfVpJSYTO0qSQB-2" value="net_mappings" style="text;html=1;align=center;verticalAlign=middle;resizable=0;points=[];autosize=1;fontSize=12;fontFamily=Roboto;fontSource=https%3A%2F%2Ffonts.googleapis.com%2Fcss%3Ffamily%3DRoboto;" parent="1" vertex="1"><mxGeometry x="232.5" y="670" width="90" height="20" as="geometry"/></mxCell><mxCell id="iMye_LXfVpJSYTO0qSQB-28" style="edgeStyle=orthogonalEdgeStyle;rounded=0;jumpSize=6;orthogonalLoop=1;jettySize=auto;html=1;startSize=6;endArrow=classic;endFill=1;endSize=6;strokeWidth=1;fontSize=12;fontFamily=Roboto;fontSource=https%3A%2F%2Ffonts.googleapis.com%2Fcss%3Ffamily%3DRoboto;" parent="1" source="iMye_LXfVpJSYTO0qSQB-3" edge="1"><mxGeometry relative="1" as="geometry"><mxPoint x="360" y="600" as="targetPoint"/></mxGeometry></mxCell><mxCell id="iMye_LXfVpJSYTO0qSQB-29" style="edgeStyle=orthogonalEdgeStyle;rounded=0;jumpSize=6;orthogonalLoop=1;jettySize=auto;html=1;startSize=6;endArrow=classic;endFill=1;endSize=6;strokeWidth=1;fontSize=12;fontFamily=Roboto;fontSource=https%3A%2F%2Ffonts.googleapis.com%2Fcss%3Ffamily%3DRoboto;" parent="1" source="iMye_LXfVpJSYTO0qSQB-3" edge="1"><mxGeometry relative="1" as="geometry"><mxPoint x="200" y="600" as="targetPoint"/></mxGeometry></mxCell><mxCell id="iMye_LXfVpJSYTO0qSQB-3" value="&lt;div style=&quot;font-size: 12px;&quot;&gt;router_mappings&lt;/div&gt;" style="text;html=1;align=center;verticalAlign=middle;resizable=0;points=[];autosize=1;fontSize=12;fontFamily=Roboto;fontSource=https%3A%2F%2Ffonts.googleapis.com%2Fcss%3Ffamily%3DRoboto;" parent="1" vertex="1"><mxGeometry x="224.5" y="590" width="110" height="20" as="geometry"/></mxCell><mxCell id="iMye_LXfVpJSYTO0qSQB-33" style="edgeStyle=orthogonalEdgeStyle;rounded=0;jumpSize=6;orthogonalLoop=1;jettySize=auto;html=1;startSize=6;endArrow=classic;endFill=1;endSize=6;strokeWidth=1;fontSize=12;fontFamily=Roboto;fontSource=https%3A%2F%2Ffonts.googleapis.com%2Fcss%3Ffamily%3DRoboto;" parent="1" source="iMye_LXfVpJSYTO0qSQB-4" edge="1"><mxGeometry relative="1" as="geometry"><mxPoint x="360" y="640" as="targetPoint"/></mxGeometry></mxCell><mxCell id="iMye_LXfVpJSYTO0qSQB-34" style="edgeStyle=orthogonalEdgeStyle;rounded=0;jumpSize=6;orthogonalLoop=1;jettySize=auto;html=1;startSize=6;endArrow=classic;endFill=1;endSize=6;strokeWidth=1;fontSize=12;fontFamily=Roboto;fontSource=https%3A%2F%2Ffonts.googleapis.com%2Fcss%3Ffamily%3DRoboto;" parent="1" source="iMye_LXfVpJSYTO0qSQB-4" edge="1"><mxGeometry relative="1" as="geometry"><mxPoint x="200" y="640" as="targetPoint"/></mxGeometry></mxCell><mxCell id="iMye_LXfVpJSYTO0qSQB-4" value="networks" style="text;html=1;align=center;verticalAlign=middle;resizable=0;points=[];autosize=1;fontSize=12;fontFamily=Roboto;fontSource=https%3A%2F%2Ffonts.googleapis.com%2Fcss%3Ffamily%3DRoboto;" parent="1" vertex="1"><mxGeometry x="247.5" y="630" width="60" height="20" as="geometry"/></mxCell><mxCell id="iMye_LXfVpJSYTO0qSQB-37" style="edgeStyle=orthogonalEdgeStyle;rounded=0;jumpSize=6;orthogonalLoop=1;jettySize=auto;html=1;startSize=6;endArrow=classic;endFill=1;endSize=6;strokeWidth=1;fontSize=12;fontFamily=Roboto;fontSource=https%3A%2F%2Ffonts.googleapis.com%2Fcss%3Ffamily%3DRoboto;" parent="1" source="iMye_LXfVpJSYTO0qSQB-5" edge="1"><mxGeometry relative="1" as="geometry"><mxPoint x="360" y="540" as="targetPoint"/></mxGeometry></mxCell><mxCell id="iMye_LXfVpJSYTO0qSQB-38" style="edgeStyle=orthogonalEdgeStyle;rounded=0;jumpSize=6;orthogonalLoop=1;jettySize=auto;html=1;startSize=6;endArrow=classic;endFill=1;endSize=6;strokeWidth=1;fontSize=12;fontFamily=Roboto;fontSource=https%3A%2F%2Ffonts.googleapis.com%2Fcss%3Ffamily%3DRoboto;" parent="1" source="iMye_LXfVpJSYTO0qSQB-5" edge="1"><mxGeometry relative="1" as="geometry"><mxPoint x="200" y="540" as="targetPoint"/></mxGeometry></mxCell><mxCell id="iMye_LXfVpJSYTO0qSQB-5" value="routers" style="text;html=1;align=center;verticalAlign=middle;resizable=0;points=[];autosize=1;fontSize=12;fontFamily=Roboto;fontSource=https%3A%2F%2Ffonts.googleapis.com%2Fcss%3Ffamily%3DRoboto;" parent="1" vertex="1"><mxGeometry x="255" y="530" width="50" height="20" as="geometry"/></mxCell><mxCell id="iMye_LXfVpJSYTO0qSQB-6" value="wan" style="text;html=1;align=center;verticalAlign=middle;resizable=0;points=[];autosize=1;fontSize=12;fontFamily=Roboto;fontSource=https%3A%2F%2Ffonts.googleapis.com%2Fcss%3Ffamily%3DRoboto;" parent="1" vertex="1"><mxGeometry x="257" y="466" width="40" height="20" as="geometry"/></mxCell><mxCell id="iMye_LXfVpJSYTO0qSQB-41" style="edgeStyle=orthogonalEdgeStyle;rounded=0;jumpSize=6;orthogonalLoop=1;jettySize=auto;html=1;exitX=0.5;exitY=1;exitDx=0;exitDy=0;startSize=6;endArrow=classic;endFill=1;endSize=6;strokeWidth=1;fontSize=12;fontFamily=Roboto;fontSource=https%3A%2F%2Ffonts.googleapis.com%2Fcss%3Ffamily%3DRoboto;" parent="1" source="iMye_LXfVpJSYTO0qSQB-11" target="iMye_LXfVpJSYTO0qSQB-11" edge="1"><mxGeometry relative="1" as="geometry"/></mxCell><mxCell id="cK_maNlCVZVQSUSzoBmn-4" value="accessible_by_user=&lt;b style=&quot;font-size: 12px;&quot;&gt;False&lt;/b&gt;" style="pointerEvents=1;shadow=0;dashed=0;html=1;strokeColor=none;labelPosition=right;verticalLabelPosition=bottom;verticalAlign=top;outlineConnect=0;align=left;shape=mxgraph.office.devices.switch;spacing=0;spacingLeft=-15;fontSize=12;labelBackgroundColor=#E6E6E6;fillColor=#000099;fontFamily=Roboto;fontSource=https%3A%2F%2Ffonts.googleapis.com%2Fcss%3Ffamily%3DRoboto;" parent="1" vertex="1"><mxGeometry x="375" y="629" width="55" height="18" as="geometry"/></mxCell><mxCell id="iMye_LXfVpJSYTO0qSQB-45" value="&lt;div style=&quot;font-size: 12px;&quot;&gt;KYPO Proxy&lt;/div&gt;" style="pointerEvents=1;shadow=0;dashed=0;html=1;strokeColor=none;fillColor=#505050;labelPosition=right;verticalLabelPosition=middle;verticalAlign=middle;outlineConnect=0;align=left;shape=mxgraph.office.servers.server_generic;labelBackgroundColor=none;fontSize=12;spacingLeft=2;fontFamily=Roboto;fontSource=https%3A%2F%2Ffonts.googleapis.com%2Fcss%3Ffamily%3DRoboto;" parent="1" vertex="1"><mxGeometry x="336.5" y="104" width="27" height="52" as="geometry"/></mxCell><mxCell id="iMye_LXfVpJSYTO0qSQB-64" style="edgeStyle=orthogonalEdgeStyle;rounded=0;jumpSize=6;orthogonalLoop=1;jettySize=auto;html=1;labelBackgroundColor=none;startArrow=classic;startFill=1;startSize=6;endArrow=classic;endFill=1;endSize=6;strokeColor=#000000;strokeWidth=2;fontSize=12;fontColor=none;fontFamily=Roboto;fontSource=https%3A%2F%2Ffonts.googleapis.com%2Fcss%3Ffamily%3DRoboto;" parent="1" source="iMye_LXfVpJSYTO0qSQB-46" edge="1"><mxGeometry relative="1" as="geometry"><mxPoint x="310" y="224" as="targetPoint"/><Array as="points"><mxPoint x="390" y="224"/><mxPoint x="390" y="224"/></Array></mxGeometry></mxCell><mxCell id="iMye_LXfVpJSYTO0qSQB-46" value="Internet" style="pointerEvents=1;shadow=0;dashed=0;html=1;strokeColor=none;fillColor=#505050;labelPosition=center;verticalLabelPosition=bottom;outlineConnect=0;verticalAlign=top;align=center;shape=mxgraph.office.clouds.cloud;labelBackgroundColor=none;fontSize=12;fontFamily=Roboto;fontSource=https%3A%2F%2Ffonts.googleapis.com%2Fcss%3Ffamily%3DRoboto;" parent="1" vertex="1"><mxGeometry x="520" y="175.5" width="94" height="55" as="geometry"/></mxCell><mxCell id="iMye_LXfVpJSYTO0qSQB-48" style="edgeStyle=orthogonalEdgeStyle;rounded=0;orthogonalLoop=1;jettySize=auto;html=1;startArrow=classic;startFill=1;endArrow=classic;endFill=1;strokeColor=#000000;strokeWidth=2;fontColor=#000000;entryX=1.091;entryY=0.556;entryDx=0;entryDy=0;entryPerimeter=0;fontSize=12;fontFamily=Roboto;fontSource=https%3A%2F%2Ffonts.googleapis.com%2Fcss%3Ffamily%3DRoboto;" parent="1" source="iMye_LXfVpJSYTO0qSQB-45" target="cK_maNlCVZVQSUSzoBmn-38" edge="1"><mxGeometry relative="1" as="geometry"><mxPoint x="285.22" y="114" as="sourcePoint"/><mxPoint x="309" y="214" as="targetPoint"/><Array as="points"><mxPoint x="349" y="214"/></Array></mxGeometry></mxCell><mxCell id="iMye_LXfVpJSYTO0qSQB-54" style="edgeStyle=orthogonalEdgeStyle;rounded=0;jumpSize=6;orthogonalLoop=1;jettySize=auto;html=1;startArrow=classic;startFill=1;startSize=6;endArrow=classic;endFill=1;endSize=6;strokeColor=#000000;strokeWidth=2;fontSize=12;labelBackgroundColor=none;fontFamily=Roboto;fontSource=https%3A%2F%2Ffonts.googleapis.com%2Fcss%3Ffamily%3DRoboto;" parent="1" source="iMye_LXfVpJSYTO0qSQB-53" target="iMye_LXfVpJSYTO0qSQB-45" edge="1"><mxGeometry relative="1" as="geometry"/></mxCell><mxCell id="iMye_LXfVpJSYTO0qSQB-58" value="&lt;div style=&quot;font-size: 12px;&quot;&gt;SSH&lt;/div&gt;" style="edgeLabel;html=1;align=center;verticalAlign=middle;resizable=0;points=[];fontSize=12;fontColor=none;labelBackgroundColor=#ffffff;fontFamily=Roboto;fontSource=https%3A%2F%2Ffonts.googleapis.com%2Fcss%3Ffamily%3DRoboto;" parent="iMye_LXfVpJSYTO0qSQB-54" vertex="1" connectable="0"><mxGeometry x="0.0456" y="-17" relative="1" as="geometry"><mxPoint x="17" y="-11" as="offset"/></mxGeometry></mxCell><mxCell id="iMye_LXfVpJSYTO0qSQB-55" style="edgeStyle=orthogonalEdgeStyle;rounded=0;jumpSize=6;orthogonalLoop=1;jettySize=auto;html=1;startArrow=classic;startFill=1;startSize=6;endArrow=classic;endFill=1;endSize=6;strokeColor=#000000;strokeWidth=2;fontSize=12;fontFamily=Roboto;fontSource=https%3A%2F%2Ffonts.googleapis.com%2Fcss%3Ffamily%3DRoboto;" parent="1" source="iMye_LXfVpJSYTO0qSQB-53" target="cK_maNlCVZVQSUSzoBmn-40" edge="1"><mxGeometry relative="1" as="geometry"/></mxCell><mxCell id="iMye_LXfVpJSYTO0qSQB-59" value="HTTPS" style="edgeLabel;html=1;align=center;verticalAlign=middle;resizable=0;points=[];fontSize=12;fontColor=none;labelBackgroundColor=#FFFFFF;fontFamily=Roboto;fontSource=https%3A%2F%2Ffonts.googleapis.com%2Fcss%3Ffamily%3DRoboto;" parent="iMye_LXfVpJSYTO0qSQB-55" vertex="1" connectable="0"><mxGeometry x="-0.2698" y="1" relative="1" as="geometry"><mxPoint x="-15.17" y="-1.4999999999999996" as="offset"/></mxGeometry></mxCell><mxCell id="iMye_LXfVpJSYTO0qSQB-53" value="" style="pointerEvents=1;shadow=0;dashed=0;html=1;strokeColor=none;fillColor=#505050;labelPosition=center;verticalLabelPosition=bottom;verticalAlign=top;outlineConnect=0;align=center;shape=mxgraph.office.users.user;labelBackgroundColor=none;fontSize=12;fontFamily=Roboto;fontSource=https%3A%2F%2Ffonts.googleapis.com%2Fcss%3Ffamily%3DRoboto;" parent="1" vertex="1"><mxGeometry x="260.5" y="14" width="32" height="35" as="geometry"/></mxCell><mxCell id="iMye_LXfVpJSYTO0qSQB-66" value="Topology Instance Definition" style="text;html=1;align=left;verticalAlign=middle;resizable=0;points=[];autosize=1;fontSize=14;fontColor=none;fontFamily=Roboto;fontSource=https%3A%2F%2Ffonts.googleapis.com%2Fcss%3Ffamily%3DRoboto;" parent="1" vertex="1"><mxGeometry y="780" width="190" height="20" as="geometry"/></mxCell><mxCell id="iMye_LXfVpJSYTO0qSQB-67" value="Topology Instance Management" style="text;html=1;align=left;verticalAlign=middle;resizable=0;points=[];autosize=1;fontSize=14;fontColor=none;fontFamily=Roboto;fontSource=https%3A%2F%2Ffonts.googleapis.com%2Fcss%3Ffamily%3DRoboto;" parent="1" vertex="1"><mxGeometry x="1" y="264" width="220" height="20" as="geometry"/></mxCell><mxCell id="iMye_LXfVpJSYTO0qSQB-68" value="KYPO Base Infrastructure" style="text;html=1;align=left;verticalAlign=middle;resizable=0;points=[];autosize=1;fontSize=14;fontColor=none;fontFamily=Roboto;fontSource=https%3A%2F%2Ffonts.googleapis.com%2Fcss%3Ffamily%3DRoboto;" parent="1" vertex="1"><mxGeometry x="1" y="74" width="170" height="20" as="geometry"/></mxCell></root></mxGraphModel></diagram></mxfile>